<?xml version="1.0" encoding="UTF-8" standalone="no"?>
<!DOCTYPE svg PUBLIC "-//W3C//DTD SVG 1.1//EN" "http://www.w3.org/Graphics/SVG/1.1/DTD/svg11.dtd">
<svg width="38pt" height="38pt" viewBox="0 0 945 614" version="1.1" xmlns="http://www.w3.org/2000/svg" xmlns:xlink="http://www.w3.org/1999/xlink" xml:space="preserve" xmlns:serif="http://www.serif.com/" style="fill-rule:evenodd;clip-rule:evenodd;stroke-linecap:round;stroke-miterlimit:10;">
    <g transform="matrix(1,0,0,1,-708.661,-409.146)">
        <g id="Logo-v1" serif:id="Logo v1">
            <g transform="matrix(-2.08155e-16,1.13314,-1.13314,-2.08155e-16,1953.36,-207.616)">
                <g id="blocks">
                    <g>
                        <g id="joined-areas" serif:id="joined areas">
                            <g transform="matrix(-1.83697e-16,-1,1,-1.83697e-16,184.378,1586.88)">
                                <path d="M696.9,720.986c-0,0 104.232,180.536 104.232,180.536l-208.464,0c-0,0 -104.233,-180.536 -104.233,-180.536l208.465,0Z" style="fill:rgb(30,30,33);"/>
                            </g>
                            <g transform="matrix(-1.83697e-16,-1,1,-1.83697e-16,184.378,1586.88)">
                                <path d="M801.132,901.522l-104.232,-180.536l104.232,-180.535l104.233,180.535l-104.233,180.536Z" style="fill:rgb(79,79,81);"/>
                            </g>
                            <g transform="matrix(-1.83697e-16,-1,1,-1.83697e-16,184.378,1586.88)">
                                <path d="M488.44,720.977l208.465,0l208.46,-361.062l-208.465,-0l-208.46,361.062Z" style="fill:rgb(13,13,16);"/>
                            </g>
                        </g>
                        <g id="joined-areas1" serif:id="joined areas">
                            <g transform="matrix(-1.83697e-16,-1,1,-1.83697e-16,184.378,1586.88)">
                                <path d="M1013.77,901.522l204.296,0l-208.465,-361.071l-204.295,-0l41.692,72.214l41.693,-0l-20.846,36.107l145.925,252.75Z" style="fill:rgb(30,30,33);"/>
                            </g>
                            <g transform="matrix(-1.83697e-16,-1,1,-1.83697e-16,184.378,1586.88)">
                                <path d="M1113.83,359.915l208.46,361.062l-104.227,180.545l-208.465,-361.071l104.232,-180.536Z" style="fill:rgb(57,57,60);"/>
                            </g>
                            <g transform="matrix(-1.83697e-16,-1,1,-1.83697e-16,184.378,1586.88)">
                                <path d="M909.534,359.915l-104.232,180.536l204.295,-0l104.232,-180.536l-204.295,-0Z" style="fill:rgb(13,13,16);"/>
                            </g>
                        </g>
                    </g>
                </g>
            </g>
            <path id="expanded-stroke---right" serif:id="expanded stroke - right" d="M1138.55,736.463l89.8,0.012l118.098,204.569l141.732,0l70.871,-122.752l-188.983,-327.329l-141.731,0.021l-23.609,40.918l141.732,0l165.347,286.39l-47.244,81.829l-94.493,0.009l-118.105,-204.582l-89.764,0.012l-23.651,40.903Z" style="fill:rgb(186,224,44);"/>
            <path id="expanded-stroke---left" serif:id="expanded stroke - left" d="M1157.49,695.56l-47.263,0.007l-118.104,204.563l-94.478,-0l-47.262,-81.838l188.972,-327.308l-47.203,-0.021l-189,327.329l70.871,122.752l141.722,0l118.094,-204.581l23.651,-40.903Z" style="fill:rgb(186,224,44);"/>
            <g transform="matrix(1.25624,-0.44382,-0.44382,1.76872,181.401,-314.196)">
                <path d="M874.253,940.624l23.331,-40.41" style="fill:none;stroke:rgb(30,30,33);stroke-width:1.9px;"/>
            </g>
            <g transform="matrix(0.24376,-1.30985,1.30985,1.26872,-417.197,503.728)">
                <path d="M873.804,940.668l23.41,-40.547" style="fill:none;stroke:rgb(13,13,16);stroke-width:1.9px;"/>
            </g>
            <g transform="matrix(0.24376,-1.30985,1.30985,1.26872,-181.509,503.728)">
                <path d="M873.804,940.668l23.41,-40.547" style="fill:none;stroke:rgb(13,13,16);stroke-width:1.9px;"/>
            </g>
            <g transform="matrix(1.2534,-0.438907,-0.438907,1.76021,534.067,-515.517)">
                <path d="M873.804,940.668l23.41,-40.547" style="fill:none;stroke:rgb(30,30,33);stroke-width:1.9px;"/>
            </g>
            <g transform="matrix(1.2534,-0.438907,-0.438907,1.76021,652.123,-310.484)">
                <path d="M873.804,940.668l23.41,-40.547" style="fill:none;stroke:rgb(30,30,33);stroke-width:1.9px;"/>
            </g>
            <path d="M1488.19,818.292l94.488,-0" style="fill:none;stroke:rgb(57,57,60);stroke-width:2.08px;"/>
        </g>
    </g>
</svg>
